<?xml version="1.0" encoding="UTF-8"?><svg id="Layer_2" xmlns="http://www.w3.org/2000/svg" viewBox="0 0 50.12 46.04"><path d="M7.53,29.9l5.71,10.4,5.63-10.4h2.67l-7.23,12.66h-2.14l-7.32-12.66h2.67Z"/><path d="M3.31,11.58c0-2.59,.7-4.59,2.11-5.99,1.41-1.41,3.51-2.11,6.3-2.11h2.56c2.8,0,4.9,.71,6.32,2.12s2.12,3.43,2.12,6.04v15.96H3.31V11.58Zm15.65-4.18c-.99-.91-2.53-1.36-4.62-1.36h-2.48c-2.14,0-3.72,.45-4.74,1.36-1.02,.91-1.53,2.3-1.53,4.18v13.46h14.86V11.58c0-1.88-.5-3.27-1.49-4.18Z"/><path d="M31.39,3.61l5.71,10.4,5.63-10.4h2.67s-7.23,12.66-7.23,12.66h-2.14S28.72,3.61,28.72,3.61h2.67Z"/><polygon points="33.63 29.73 35.95 29.73 35.95 42.55 33.63 42.07 33.63 29.73"/><path d="M29.52,40.44c1.42,1.42,3.52,2.12,6.32,2.12h.11v-2.56h-.16c-2.08,0-3.62-.45-4.62-1.36-.99-.91-1.49-2.3-1.49-4.18v-12.63c0-.46,.37-.83,.83-.83h13.19c.46,0,.83,.37,.83,.83v12.63c0,1.88-.51,3.27-1.53,4.18-1.02,.91-2.6,1.36-4.73,1.36v2.56h.13c2.8,0,4.9-.7,6.3-2.11,1.41-1.41,2.11-3.4,2.11-5.99v-14.37c0-.91-.74-1.65-1.65-1.65H29.05c-.91,0-1.65,.74-1.65,1.65v14.31c0,2.61,.71,4.62,2.12,6.04Z"/></svg>